<svg width="24" height="24" viewBox="0 0 24 24" fill="none" xmlns="http://www.w3.org/2000/svg">
<path d="M7.79967 17.834L11.9997 13.634L16.1997 17.834L17.833 16.2007L13.633 12.0007L17.833 7.80065L16.1997 6.16732L11.9997 10.3673L7.79967 6.16732L6.16634 7.80065L10.3663 12.0007L6.16634 16.2007L7.79967 17.834ZM11.9997 23.6673C10.3858 23.6673 8.86912 23.3611 7.44968 22.7486C6.03023 22.1361 4.79551 21.3048 3.74551 20.2548C2.69551 19.2048 1.86426 17.9701 1.25176 16.5507C0.639258 15.1312 0.333008 13.6145 0.333008 12.0007C0.333008 10.3868 0.639258 8.8701 1.25176 7.45065C1.86426 6.03121 2.69551 4.79648 3.74551 3.74648C4.79551 2.69648 6.03023 1.86523 7.44968 1.25273C8.86912 0.640234 10.3858 0.333984 11.9997 0.333984C13.6136 0.333984 15.1302 0.640234 16.5497 1.25273C17.9691 1.86523 19.2038 2.69648 20.2538 3.74648C21.3038 4.79648 22.1351 6.03121 22.7476 7.45065C23.3601 8.8701 23.6663 10.3868 23.6663 12.0007C23.6663 13.6145 23.3601 15.1312 22.7476 16.5507C22.1351 17.9701 21.3038 19.2048 20.2538 20.2548C19.2038 21.3048 17.9691 22.1361 16.5497 22.7486C15.1302 23.3611 13.6136 23.6673 11.9997 23.6673Z" fill="#527752"/>
</svg>
