<svg width="1920" height="843" viewBox="0 0 1920 843" fill="none" xmlns="http://www.w3.org/2000/svg" xmlns:xlink="http://www.w3.org/1999/xlink">
<rect width="1920" height="843" fill="url(#pattern0_25206_3803)"/>
<rect width="1920" height="843" fill="url(#paint0_linear_25206_3803)"/>
<defs>
<linearGradient id="paint0_linear_25206_3803" x1="960" y1="0" x2="960" y2="843" gradientUnits="userSpaceOnUse">
<stop stop-color="#F5F3EF"/>
<stop offset="0.5" stop-color="#F4F5F1" stop-opacity="0"/>
<stop offset="1" stop-color="#F5F3EF"/>
</linearGradient>
<pattern id="pattern0_25206_3803" patternUnits="userSpaceOnUse" patternTransform="matrix(90 0 0 180 930 391.5)" preserveAspectRatio="none" viewBox="0 0 36 72" width="1" height="1">
<use xlink:href="#pattern0_25206_3803_inner" transform="translate(-36 0)"/>
<g id="pattern0_25206_3803_inner">
<path fill-rule="evenodd" clip-rule="evenodd" d="M3.4037 1.42519C3.50827 1.22643 3.73265 1.11005 4.08355 1.07263C5.87749 0.881688 7.48003 1.07675 7.97087 1.54599C8.3296 1.88903 8.50785 2.5226 8.72915 4.24148C8.81471 4.90664 8.91747 5.56298 8.95745 5.69985C9.02372 5.9275 9.30262 5.94884 12.2189 5.94884C12.2659 5.94884 12.3122 5.94884 12.3579 5.94884C14.7611 5.94873 15.4215 5.9487 15.6539 6.26965C15.742 6.39125 15.7686 6.55894 15.8053 6.79017C15.8072 6.80176 15.809 6.81352 15.8109 6.82543C15.8673 7.17872 15.8091 7.40096 15.5843 7.69178L15.2819 8.08305H12.4261H9.57034V8.47958C9.57034 8.82489 9.62906 8.88081 10.0243 8.9114C10.6499 8.95992 11.6447 9.27336 12.3731 9.65154C13.1859 10.0737 14.5044 11.3706 14.8009 12.0399L15.0395 12.5782L16.1381 12.5716C17.0311 12.5661 17.3109 12.6195 17.6325 12.8568C18.2789 13.3336 18.6966 14.3613 18.7703 15.6555C18.8203 16.5363 18.8843 16.8004 19.0605 16.8525C19.7058 17.0434 20.4484 17.532 20.6679 17.91C20.8041 18.1445 20.9475 18.6704 20.9867 19.0787C21.1323 20.5969 20.0703 21.735 18.5034 21.7397C17.2408 21.7434 16.3142 20.9305 16.1779 19.6998C16.1175 19.1546 16.1887 18.87 16.6127 17.9614C17.1767 16.7525 17.2361 16.1647 16.8965 15.1505C16.7305 14.6548 16.5849 14.4616 16.3271 14.3957C16.1365 14.3471 15.9291 14.3634 15.866 14.432C15.803 14.5006 15.7259 15.1342 15.6949 15.8397C15.6478 16.9124 15.5653 17.2822 15.1918 18.0944C14.6237 19.33 14.0616 20.0495 13.0995 20.7729C10.5183 22.7134 6.79179 22.3115 4.60949 19.8571C3.16016 18.2273 2.63675 15.8921 3.25649 13.8211C3.81989 11.9377 5.04007 10.3304 6.42355 9.64884C6.76942 9.47839 7.07894 9.29527 7.11137 9.24177C7.14381 9.18842 6.95675 7.86536 6.69574 6.30184C6.43459 4.73819 6.21972 3.44301 6.21804 3.42337C6.2165 3.40374 5.66471 3.38681 4.99184 3.38567C4.31912 3.38439 3.68134 3.32719 3.57468 3.25847C3.32261 3.09599 3.20238 1.80793 3.4037 1.42519ZM8.45193 11.1951C7.16799 11.6265 6.04972 12.5898 5.48981 13.7468C5.06482 14.6247 5.03183 16.5466 5.4276 17.3633C5.88168 18.3002 6.70105 19.1086 7.6243 19.5302C8.39754 19.8835 8.61228 19.9193 9.62458 19.8651C10.54 19.816 10.8843 19.7292 11.4107 19.4151C12.2088 18.9387 13.1126 17.9628 13.4304 17.2341C13.7915 16.4061 13.7728 14.5928 13.3945 13.7569C12.7047 12.2326 11.3317 11.2603 9.70329 11.1428C9.20727 11.1071 8.64416 11.1305 8.45193 11.1951ZM8.36847 14.889C7.86588 15.6193 6.79179 14.8285 7.1624 14.0009C7.28584 13.7252 7.4318 13.632 7.73992 13.632C8.49625 13.632 8.80647 14.2525 8.36847 14.889ZM10.4371 15.0263C10.1792 14.7638 10.2292 13.9544 10.514 13.7856C10.867 13.5765 11.1209 13.5995 11.4117 13.8674C11.7247 14.1557 11.7363 14.4646 11.4497 14.8808C11.213 15.2248 10.704 15.2979 10.4371 15.0263ZM8.84924 18.2572C7.63353 18.0014 6.85372 16.9535 7.41195 16.3258C7.73656 15.9607 7.97828 15.979 8.47737 16.4064C8.96081 16.8203 9.58418 16.8663 10.1994 16.5333C10.8845 16.1627 11.3486 16.1372 11.5189 16.4611C12.0188 17.4119 10.3065 18.564 8.84924 18.2572ZM17.7837 19.252C17.7837 19.0568 17.8621 18.801 17.958 18.6833C18.186 18.4038 18.8579 18.4093 19.1368 18.693C19.6172 19.182 19.2208 20.0346 18.513 20.0346C18.0592 20.0346 17.7837 19.7389 17.7837 19.252Z" fill="white"/>
</g>
<use xlink:href="#pattern0_25206_3803_inner" transform="translate(-18 36)"/>
<use xlink:href="#pattern0_25206_3803_inner" transform="translate(18 36)"/>
</pattern></defs>
</svg>
