<svg width="181" height="52" viewBox="0 0 181 52" fill="none" xmlns="http://www.w3.org/2000/svg">
<path d="M7.87998 7.49236C8.95933 6.92536 11.0088 6.24508 12.0826 6.09725C14.0285 5.82974 16.6246 6.14038 18.4932 6.86452C20.3979 7.60273 22.6302 9.1599 24.6378 11.1509C25.6139 12.1188 26.4362 12.9103 26.4651 12.9099C26.4941 12.9096 27.3812 12.0647 28.4365 11.0326C29.4917 10.0004 30.9603 8.75516 31.6997 8.2651C35.6164 5.67059 40.0667 5.28998 44.1508 7.20055C45.2533 7.71638 45.8433 8.16735 47.1697 9.50818C49.6751 12.0411 50.8423 14.6098 51.0407 18.027C51.3786 23.8455 48.698 29.6694 43.7919 33.776C42.0792 35.2098 40.1188 36.4821 39.6227 36.4821C39.3782 36.4821 38.9154 35.2952 38.7626 34.2761L38.6392 33.4542L39.7049 32.6396C41.2676 31.445 43.7952 28.8596 44.6933 27.537C45.6725 26.095 46.7931 23.7221 47.1599 22.3137C47.5151 20.9498 47.5173 18.1046 47.1643 16.6074C46.1914 12.4806 43.0606 9.96571 38.8518 9.93008C35.4299 9.90121 33.6999 10.8183 29.5241 14.875C27.5018 16.8394 26.5308 17.6615 26.2328 17.6615C25.931 17.6615 25.0707 16.9142 23.2288 15.0526C19.7549 11.541 17.8887 10.3385 15.3247 9.96005C10.338 9.22367 6.18668 12.2169 5.28785 17.197C4.45189 21.8287 6.11815 25.6336 11.4584 31.2867L12.5056 32.3953L12.2606 33.6622C12.1259 34.3589 11.9644 35.3169 11.9017 35.7911L11.7879 36.6533L10.4018 35.3343C5.89633 31.047 3.3168 27.4102 2.01379 23.5087C1.53469 22.0739 1.49559 21.7467 1.50034 19.2147C1.50509 16.7325 1.55187 16.3359 1.99662 15.012C2.76571 12.7227 3.82295 10.9882 5.39402 9.43892C6.17809 8.66563 7.26146 7.81742 7.87998 7.49236Z" fill="#DE6F31"/>
<path fill-rule="evenodd" clip-rule="evenodd" d="M16.271 17.6614C20.3142 17.6614 19.9686 17.3335 21.0454 22.1914L21.1382 22.6102L25.139 22.4833C29.4462 22.347 30.1308 22.4419 30.335 23.2038C30.5187 23.8885 30.4565 24.5093 30.1618 24.9297C29.8826 25.3286 29.8047 25.3359 25.8442 25.3359H21.8111L21.937 26.2848C22.0063 26.8064 22.104 27.2998 22.154 27.3812C22.2042 27.4623 22.7829 27.5286 23.4397 27.5286C24.7973 27.5286 26.2799 27.907 27.614 28.594C28.6515 29.1283 28.4812 29.1046 30.1721 28.9486C30.8756 28.8835 32.108 28.8985 32.9105 28.9818C34.2926 29.125 34.4011 29.1693 34.9631 29.8194C35.6973 30.6689 36.0715 31.6553 36.9677 35.1036L37.6706 37.8077L38.3981 38.1046C40.0903 38.7953 40.8051 39.694 40.9664 41.3325C41.0604 42.2883 41.0106 42.5427 40.5564 43.4247C39.3391 45.7885 36.4987 46.2916 34.544 44.4898C33.0087 43.0746 32.9749 40.8744 34.4603 39.0402L34.83 38.5834L34.2961 36.5734C33.6851 34.274 33.271 33.0574 32.9796 32.7062C32.8655 32.569 32.4184 32.4621 31.9576 32.4621C31.2474 32.4621 31.1562 32.5047 31.2737 32.7819C31.6848 33.7521 31.9355 34.6251 32.1321 35.7715C32.3189 36.861 32.3061 37.276 32.0465 38.5316C31.6328 40.5323 30.9476 41.8103 29.5255 43.2343C27.3967 45.3656 24.9933 46.2104 21.7829 45.9561C20.4395 45.8495 19.927 45.7139 18.8593 45.1806C15.5747 43.5404 13.7193 40.7156 13.4994 37.0202C13.3922 35.2168 13.684 33.9478 14.6113 32.188C15.2527 30.9708 17.1358 28.9918 17.9892 28.6381C18.6311 28.3722 18.6492 28.7323 17.7586 24.0568L17.1842 21.0418H15.3026C13.5456 21.0418 13.3977 21.0133 13.0713 20.6104C12.6369 20.0738 12.6006 18.6472 13.0066 18.0676C13.2806 17.6761 13.3989 17.6614 16.271 17.6614ZM37.2072 40.3193C36.3999 40.3193 35.7454 40.9737 35.7454 41.7811C35.7454 42.5884 36.3999 43.2428 37.2072 43.2429C38.0145 43.2429 38.669 42.5884 38.669 41.7811C38.669 40.9737 38.0145 40.3193 37.2072 40.3193ZM26.3046 31.3253C25.2327 30.7422 22.9745 30.3711 22.8275 30.7539C22.7329 31.0006 22.987 32.7824 23.3317 34.2894C23.4973 35.0129 23.6286 35.1719 24.4251 35.6141C25.3967 36.1535 25.426 36.2206 25.1401 37.2504C24.8726 38.2135 24.2092 38.6747 23.0912 38.6747C22.2827 38.6747 22.104 38.598 21.4959 37.9895C20.7649 37.2577 20.651 36.903 20.1043 33.6498C19.6482 30.9355 19.6797 30.9631 18.4696 32.2262C16.7688 34.001 16.2131 36.1913 16.8946 38.4324C17.5093 40.4539 18.7261 41.7542 20.7336 42.5352C23.8125 43.7327 27.2146 42.4307 28.5474 39.5448C29.0186 38.5244 29.076 38.2031 29.0758 36.5734C29.0758 34.9423 29.0227 34.646 28.5835 33.8129C27.8906 32.4994 27.3223 31.8791 26.3046 31.3253Z" fill="#527752"/>
<path d="M73.0853 16.484H75.6773V38.588H73.0853V16.484ZM67.5653 23.804H81.3413V26.18H67.5653V23.804ZM66.5813 29.684H82.3253V32.084H66.5813V29.684ZM67.5893 18.188L69.7493 17.396C70.0533 17.908 70.3413 18.468 70.6133 19.076C70.8853 19.684 71.1253 20.276 71.3333 20.852C71.5573 21.428 71.7173 21.948 71.8133 22.412L69.4853 23.348C69.4053 22.9 69.2613 22.38 69.0533 21.788C68.8613 21.196 68.6373 20.588 68.3813 19.964C68.1253 19.324 67.8613 18.732 67.5893 18.188ZM79.0133 17.204L81.6533 18.116C81.3653 18.708 81.0613 19.316 80.7413 19.94C80.4373 20.564 80.1333 21.164 79.8293 21.74C79.5413 22.3 79.2613 22.804 78.9893 23.252L76.9013 22.436C77.1573 21.956 77.4133 21.412 77.6693 20.804C77.9413 20.196 78.1973 19.58 78.4373 18.956C78.6773 18.316 78.8693 17.732 79.0133 17.204ZM65.3333 16.244L67.7333 17.012C67.1893 18.356 66.5413 19.7 65.7893 21.044C65.0533 22.388 64.2613 23.66 63.4133 24.86C62.5653 26.044 61.6853 27.092 60.7733 28.004C60.6933 27.796 60.5733 27.524 60.4133 27.188C60.2533 26.852 60.0853 26.516 59.9093 26.18C59.7333 25.844 59.5653 25.572 59.4053 25.364C60.1893 24.628 60.9493 23.772 61.6853 22.796C62.4213 21.82 63.1013 20.772 63.7253 19.652C64.3493 18.532 64.8853 17.396 65.3333 16.244ZM62.9573 22.748L65.4053 20.3L65.4293 20.324V38.516H62.9573V22.748Z" fill="#121C12"/>
<path d="M93.9893 16.268L96.5333 16.844C96.1973 18.108 95.7973 19.348 95.3333 20.564C94.8693 21.78 94.3573 22.924 93.7973 23.996C93.2373 25.052 92.6373 25.98 91.9973 26.78C91.8533 26.636 91.6533 26.46 91.3973 26.252C91.1413 26.028 90.8853 25.812 90.6293 25.604C90.3733 25.396 90.1413 25.228 89.9333 25.1C90.5413 24.396 91.1013 23.572 91.6133 22.628C92.1253 21.684 92.5813 20.668 92.9813 19.58C93.3973 18.492 93.7333 17.388 93.9893 16.268ZM93.3893 26.78L95.9093 27.308C95.6853 28.332 95.3973 29.34 95.0453 30.332C94.6933 31.324 94.3013 32.26 93.8693 33.14C93.4533 34.004 93.0133 34.764 92.5493 35.42C92.4053 35.276 92.1893 35.116 91.9013 34.94C91.6293 34.764 91.3573 34.596 91.0853 34.436C90.8133 34.26 90.5733 34.124 90.3653 34.028C91.0693 33.164 91.6773 32.084 92.1893 30.788C92.7013 29.476 93.1013 28.14 93.3893 26.78ZM94.3013 20.564H104.429V22.964H93.3413L94.3013 20.564ZM97.3493 21.596H99.8933V35.66C99.8933 36.284 99.8213 36.788 99.6773 37.172C99.5333 37.572 99.2613 37.876 98.8613 38.084C98.4613 38.292 97.9813 38.428 97.4213 38.492C96.8613 38.572 96.1893 38.612 95.4053 38.612C95.3573 38.228 95.2453 37.78 95.0693 37.268C94.8933 36.772 94.7093 36.356 94.5173 36.02C95.0453 36.036 95.5333 36.044 95.9813 36.044C96.4453 36.044 96.7573 36.036 96.9173 36.02C97.0773 36.02 97.1893 35.996 97.2533 35.948C97.3173 35.9 97.3493 35.796 97.3493 35.636V21.596ZM100.997 27.332L103.301 26.564C103.749 27.396 104.149 28.284 104.501 29.228C104.869 30.172 105.189 31.1 105.461 32.012C105.733 32.924 105.925 33.748 106.037 34.484L103.565 35.324C103.469 34.604 103.293 33.78 103.037 32.852C102.797 31.924 102.501 30.98 102.149 30.02C101.797 29.06 101.413 28.164 100.997 27.332ZM103.733 20.564H104.069L104.477 20.492L106.277 20.828C106.133 21.788 105.965 22.772 105.773 23.78C105.581 24.788 105.405 25.636 105.245 26.324L103.037 25.94C103.117 25.508 103.197 25.012 103.277 24.452C103.357 23.876 103.437 23.284 103.517 22.676C103.597 22.052 103.669 21.468 103.733 20.924V20.564ZM88.9493 16.268L91.3733 17.012C90.8613 18.372 90.2533 19.732 89.5493 21.092C88.8453 22.436 88.0773 23.716 87.2453 24.932C86.4293 26.132 85.5893 27.188 84.7253 28.1C84.6453 27.892 84.5253 27.62 84.3653 27.284C84.2053 26.948 84.0293 26.612 83.8373 26.276C83.6453 25.924 83.4773 25.644 83.3333 25.436C84.0853 24.7 84.8053 23.844 85.4933 22.868C86.1973 21.876 86.8453 20.82 87.4373 19.7C88.0293 18.58 88.5333 17.436 88.9493 16.268ZM86.5733 22.772L89.0213 20.324L89.0453 20.348V38.54H86.5733V22.772Z" fill="#121C12"/>
<path d="M108.437 19.604H129.749V22.076H108.437V19.604ZM116.165 27.356H128.765V29.732H116.165V27.356ZM115.229 35.588H129.677V37.988H115.229V35.588ZM121.205 23.18H123.797V36.884H121.205V23.18ZM116.093 16.172L118.781 16.796C118.205 18.7 117.469 20.58 116.573 22.436C115.693 24.276 114.629 25.996 113.381 27.596C112.133 29.196 110.669 30.58 108.989 31.748C108.909 31.508 108.789 31.236 108.629 30.932C108.485 30.628 108.333 30.332 108.173 30.044C108.013 29.74 107.869 29.484 107.741 29.276C108.829 28.572 109.813 27.724 110.693 26.732C111.573 25.724 112.357 24.636 113.045 23.468C113.749 22.3 114.349 21.1 114.845 19.868C115.357 18.62 115.773 17.388 116.093 16.172ZM111.317 26.18H113.909V38.516H111.317V26.18Z" fill="#121C12"/>
<path d="M134.909 17.684H151.373V38.252H148.613V20.276H137.573V38.3H134.909V17.684ZM136.709 25.796H149.765V28.34H136.709V25.796ZM136.685 34.148H149.789V36.74H136.685V34.148Z" fill="#121C12"/>
<path d="M166.013 28.004H168.677V38.588H166.013V28.004ZM163.181 24.956V26.708H170.885V24.956H163.181ZM160.709 23.132H173.525V28.556H160.709V23.132ZM158.453 30.14H174.581V32.444H161.069V37.508H158.453V30.14ZM173.357 30.14H175.997V35.108C175.997 35.716 175.917 36.196 175.757 36.548C175.613 36.9 175.309 37.172 174.845 37.364C174.397 37.54 173.845 37.644 173.189 37.676C172.549 37.708 171.789 37.724 170.909 37.724C170.845 37.388 170.733 36.996 170.573 36.548C170.413 36.116 170.245 35.732 170.069 35.396C170.453 35.412 170.837 35.428 171.221 35.444C171.621 35.444 171.965 35.444 172.253 35.444C172.557 35.444 172.765 35.444 172.877 35.444C173.053 35.428 173.173 35.396 173.237 35.348C173.317 35.3 173.357 35.204 173.357 35.06V30.14ZM165.749 16.148H168.413V20.564H165.749V16.148ZM156.869 19.58H177.389V25.22H174.821V21.812H159.341V25.22H156.869V19.58ZM158.789 17.276L161.141 16.34C161.493 16.74 161.837 17.188 162.173 17.684C162.525 18.164 162.789 18.596 162.965 18.98L160.493 20.084C160.349 19.684 160.109 19.22 159.773 18.692C159.453 18.164 159.125 17.692 158.789 17.276ZM172.901 16.364L175.661 17.204C175.245 17.716 174.821 18.204 174.389 18.668C173.973 19.132 173.597 19.532 173.261 19.868L171.101 19.076C171.309 18.82 171.525 18.532 171.749 18.212C171.973 17.892 172.189 17.572 172.397 17.252C172.605 16.916 172.773 16.62 172.901 16.364Z" fill="#121C12"/>
</svg>
