<svg width="126" height="36" viewBox="0 0 126 36" fill="none" xmlns="http://www.w3.org/2000/svg">
<path d="M5.62488 5.18701C6.37443 4.79447 7.79765 4.32351 8.54339 4.22117C9.89466 4.03597 11.6975 4.25103 12.9951 4.75235C14.3179 5.26342 15.8681 6.34147 17.2623 7.71983C17.9401 8.3899 18.5111 8.9379 18.5312 8.93765C18.5514 8.9374 19.1674 8.35246 19.9002 7.63797C20.633 6.92337 21.6529 6.06126 22.1664 5.72198C24.8863 3.92579 27.9768 3.66229 30.8129 4.98499C31.5786 5.3421 31.9883 5.65431 32.9094 6.58258C34.6492 8.33614 35.4598 10.1145 35.5976 12.4802C35.8323 16.5084 33.9708 20.5404 30.5637 23.3834C29.3744 24.376 28.0129 25.2569 27.6684 25.2569C27.4986 25.2569 27.1772 24.4351 27.0711 23.7296L26.9855 23.1606L27.7255 22.5967C28.8107 21.7696 30.566 19.9797 31.1897 19.0641C31.8697 18.0658 32.6479 16.423 32.9026 15.4479C33.1493 14.5037 33.1508 12.534 32.9056 11.4974C32.2301 8.64038 30.0559 6.89933 27.1331 6.87467C24.7568 6.85468 23.5553 7.48959 20.6555 10.298C19.2512 11.6581 18.5769 12.2272 18.3699 12.2272C18.1603 12.2272 17.5629 11.7098 16.2838 10.421C13.8713 7.9899 12.5754 7.1574 10.7948 6.89541C7.33182 6.38561 4.44897 8.45783 3.82479 11.9056C3.24426 15.1122 4.40138 17.7463 8.10993 21.66L8.83715 22.4275L8.66698 23.3046C8.57346 23.7869 8.46129 24.4502 8.41777 24.7784L8.33872 25.3754L7.37611 24.4622C4.24734 21.4941 2.456 18.9763 1.55114 16.2752C1.21843 15.282 1.19127 15.0554 1.19457 13.3025C1.19787 11.5841 1.23036 11.3094 1.53921 10.3929C2.0733 8.80799 2.8075 7.60724 3.89851 6.53463C4.44301 5.99928 5.19535 5.41205 5.62488 5.18701Z" fill="#DE6F31"/>
<path fill-rule="evenodd" clip-rule="evenodd" d="M11.4204 12.2271C14.2196 12.2271 13.9803 12.0001 14.7257 15.3632L14.79 15.6532L17.5598 15.5653C20.5417 15.471 21.0156 15.5367 21.1571 16.0642C21.2842 16.5382 21.2412 16.968 21.0371 17.259C20.8438 17.5351 20.7899 17.5402 18.048 17.5402H15.2558L15.3431 18.1972C15.391 18.5583 15.4586 18.8998 15.4933 18.9562C15.528 19.0123 15.9286 19.0582 16.3834 19.0582C17.3232 19.0582 18.3497 19.3202 19.2733 19.7959C19.9915 20.1657 19.8736 20.1493 21.0443 20.0413C21.5313 19.9963 22.3845 20.0066 22.9401 20.0643C23.8969 20.1635 23.972 20.1941 24.3611 20.6442C24.8694 21.2323 25.1284 21.9152 25.7489 24.3025L26.2355 26.1745L26.7392 26.3801C27.9107 26.8583 28.4055 27.4804 28.5173 28.6148C28.5823 29.2765 28.5478 29.4526 28.2334 30.0632C27.3906 31.6997 25.4242 32.048 24.0709 30.8006C23.0081 29.8209 22.9847 28.2976 24.013 27.0278L24.2689 26.7116L23.8993 25.32C23.4763 23.7282 23.1896 22.8859 22.9879 22.6428C22.9089 22.5478 22.5994 22.4738 22.2804 22.4738C21.7887 22.4738 21.7255 22.5033 21.8069 22.6951C22.0915 23.3669 22.2651 23.9712 22.4012 24.7649C22.5305 25.5192 22.5217 25.8065 22.3419 26.6757C22.0555 28.0608 21.5811 28.9456 20.5966 29.9314C19.1228 31.4069 17.4589 31.9918 15.2363 31.8157C14.3063 31.742 13.9515 31.6481 13.2123 31.2788C10.9383 30.1434 9.65382 28.1877 9.50163 25.6294C9.42737 24.3808 9.62939 23.5023 10.2714 22.284C10.7154 21.4413 12.0191 20.0712 12.6099 19.8264C13.0543 19.6423 13.0669 19.8916 12.4503 16.6547L12.0527 14.5674H10.75C9.5336 14.5674 9.43119 14.5476 9.20526 14.2687C8.90449 13.8972 8.87936 12.9096 9.16042 12.5083C9.35015 12.2373 9.43205 12.2271 11.4204 12.2271ZM25.9147 27.9133C25.3558 27.9133 24.9027 28.3664 24.9027 28.9253C24.9027 29.4842 25.3558 29.9373 25.9147 29.9373C26.4736 29.9373 26.9267 29.4843 26.9267 28.9253C26.9267 28.3664 26.4736 27.9133 25.9147 27.9133ZM18.3667 21.6867C17.6247 21.2831 16.0613 21.0262 15.9595 21.2911C15.894 21.462 16.0699 22.6955 16.3086 23.7388C16.4232 24.2397 16.5141 24.3498 17.0655 24.6559C17.7382 25.0293 17.7585 25.0758 17.5605 25.7887C17.3753 26.4555 16.9161 26.7748 16.1421 26.7748C15.5824 26.7748 15.4587 26.7217 15.0377 26.3004C14.5316 25.7938 14.4527 25.5482 14.0742 23.296C13.7585 21.4169 13.7803 21.436 12.9425 22.3104C11.7651 23.5391 11.3803 25.0555 11.8522 26.607C12.2777 28.0065 13.1201 28.9067 14.5099 29.4474C16.6415 30.2765 18.9968 29.3751 19.9195 27.3772C20.2457 26.6707 20.2854 26.4483 20.2853 25.32C20.2853 24.1908 20.2485 23.9856 19.9444 23.4089C19.4648 22.4996 19.0713 22.0701 18.3667 21.6867Z" fill="#527752"/>
<path d="M50.9063 11.412H52.7063V26.7147H50.9063V11.412ZM47.0729 16.4797H56.6396V18.1246H47.0729V16.4797ZM46.3896 20.5504H57.3229V22.212H46.3896V20.5504ZM47.0896 12.5917L48.5896 12.0434C48.8007 12.3978 49.0007 12.7855 49.1896 13.2064C49.3785 13.6274 49.5451 14.0372 49.6896 14.436C49.8451 14.8347 49.9563 15.1947 50.0229 15.516L48.4062 16.164C48.3507 15.8538 48.2507 15.4938 48.1062 15.084C47.9729 14.6741 47.8174 14.2532 47.6396 13.8212C47.4618 13.3781 47.2785 12.9683 47.0896 12.5917ZM55.0229 11.9104L56.8562 12.5418C56.6562 12.9517 56.4451 13.3726 56.2229 13.8046C56.0118 14.2366 55.8007 14.652 55.5896 15.0507C55.3896 15.4384 55.1951 15.7874 55.0063 16.0975L53.5562 15.5326C53.734 15.2003 53.9118 14.8237 54.0896 14.4027C54.2785 13.9818 54.4563 13.5554 54.6229 13.1234C54.7896 12.6803 54.9229 12.276 55.0229 11.9104ZM45.5229 11.2458L47.1896 11.7775C46.8118 12.708 46.3618 13.6384 45.8396 14.5689C45.3285 15.4994 44.7785 16.38 44.1896 17.2107C43.6007 18.0304 42.9896 18.756 42.3562 19.3874C42.3007 19.2434 42.2174 19.055 42.1062 18.8224C41.9951 18.5898 41.8785 18.3572 41.7562 18.1246C41.634 17.892 41.5174 17.7037 41.4062 17.5597C41.9507 17.0501 42.4785 16.4575 42.9896 15.7818C43.5007 15.1061 43.9729 14.3806 44.4062 13.6052C44.8396 12.8298 45.2118 12.0434 45.5229 11.2458ZM43.8729 15.7486L45.5729 14.0538L45.5896 14.0704V26.6649H43.8729V15.7486Z" fill="#121C12"/>
<path d="M65.4229 11.2624L67.1896 11.6612C66.9563 12.5363 66.6785 13.3947 66.3563 14.2366C66.034 15.0784 65.6785 15.8704 65.2896 16.6126C64.9007 17.3437 64.484 17.9861 64.0396 18.54C63.9396 18.4403 63.8007 18.3184 63.6229 18.1744C63.4451 18.0194 63.2674 17.8698 63.0896 17.7258C62.9118 17.5818 62.7507 17.4655 62.6062 17.3769C63.0285 16.8895 63.4174 16.319 63.7729 15.6655C64.1285 15.012 64.4451 14.3086 64.7229 13.5554C65.0118 12.8021 65.2451 12.0378 65.4229 11.2624ZM65.0063 18.54L66.7563 18.9055C66.6007 19.6144 66.4007 20.3123 66.1562 20.999C65.9118 21.6858 65.6396 22.3338 65.3396 22.943C65.0507 23.5412 64.7451 24.0674 64.4229 24.5215C64.3229 24.4218 64.1729 24.311 63.9729 24.1892C63.784 24.0674 63.5951 23.951 63.4062 23.8403C63.2174 23.7184 63.0507 23.6243 62.9062 23.5578C63.3951 22.9597 63.8174 22.212 64.1729 21.3147C64.5285 20.4064 64.8062 19.4815 65.0063 18.54ZM65.6396 14.2366H72.6729V15.8981H64.9729L65.6396 14.2366ZM67.7562 14.951H69.5229V24.6877C69.5229 25.1197 69.4729 25.4686 69.3729 25.7344C69.2729 26.0114 69.084 26.2218 68.8062 26.3658C68.5285 26.5098 68.1951 26.604 67.8063 26.6483C67.4174 26.7037 66.9507 26.7314 66.4062 26.7314C66.3729 26.4655 66.2951 26.1554 66.1729 25.8009C66.0507 25.4575 65.9229 25.1695 65.7896 24.9369C66.1562 24.948 66.4951 24.9535 66.8062 24.9535C67.1285 24.9535 67.3451 24.948 67.4562 24.9369C67.5674 24.9369 67.6451 24.9203 67.6896 24.887C67.734 24.8538 67.7562 24.7818 67.7562 24.671V14.951ZM70.2896 18.9221L71.8896 18.3904C72.2007 18.9664 72.4785 19.5812 72.7229 20.2347C72.9785 20.8883 73.2007 21.5307 73.3896 22.1621C73.5785 22.7935 73.7118 23.364 73.7896 23.8735L72.0729 24.455C72.0062 23.9566 71.884 23.3861 71.7062 22.7437C71.5396 22.1012 71.334 21.4477 71.0896 20.783C70.8451 20.1184 70.5785 19.4981 70.2896 18.9221ZM72.1896 14.2366H72.4229L72.7062 14.1867L73.9562 14.4194C73.8563 15.084 73.7396 15.7652 73.6062 16.463C73.4729 17.1609 73.3507 17.748 73.2396 18.2243L71.7062 17.9584C71.7618 17.6594 71.8174 17.316 71.8729 16.9283C71.9285 16.5295 71.984 16.1197 72.0396 15.6987C72.0951 15.2667 72.1451 14.8624 72.1896 14.4858V14.2366ZM61.9229 11.2624L63.6062 11.7775C63.2507 12.719 62.8285 13.6606 62.3396 14.6021C61.8507 15.5326 61.3174 16.4187 60.7396 17.2606C60.1729 18.0914 59.5896 18.8224 58.9896 19.4538C58.934 19.3098 58.8507 19.1215 58.7396 18.8889C58.6285 18.6563 58.5062 18.4237 58.3729 18.191C58.2396 17.9474 58.1229 17.7535 58.0229 17.6095C58.5451 17.1 59.0451 16.5074 59.5229 15.8317C60.0118 15.1449 60.4618 14.4138 60.8729 13.6384C61.284 12.863 61.634 12.071 61.9229 11.2624ZM60.2729 15.7652L61.9729 14.0704L61.9896 14.087V26.6815H60.2729V15.7652Z" fill="#121C12"/>
<path d="M75.4562 13.572H90.2562V15.2834H75.4562V13.572ZM80.8229 18.9387H89.5729V20.5837H80.8229V18.9387ZM80.1729 24.6378H90.2062V26.2994H80.1729V24.6378ZM84.3229 16.0477H86.1229V25.535H84.3229V16.0477ZM80.7729 11.196L82.6396 11.628C82.2396 12.9461 81.7285 14.2477 81.1062 15.5326C80.4951 16.8064 79.7562 17.9972 78.8896 19.1049C78.0229 20.2126 77.0062 21.1707 75.8396 21.9794C75.784 21.8132 75.7007 21.6249 75.5896 21.4144C75.4896 21.204 75.384 20.999 75.2729 20.7997C75.1618 20.5892 75.0618 20.412 74.9729 20.268C75.7285 19.7806 76.4118 19.1935 77.0229 18.5067C77.634 17.8089 78.1785 17.0557 78.6562 16.247C79.1451 15.4384 79.5618 14.6077 79.9062 13.7547C80.2618 12.8907 80.5507 12.0378 80.7729 11.196ZM77.4562 18.1246H79.2562V26.6649H77.4562V18.1246Z" fill="#121C12"/>
<path d="M93.8396 12.2427H105.273V26.4821H103.356V14.0372H95.6896V26.5154H93.8396V12.2427ZM95.0896 17.8587H104.156V19.62H95.0896V17.8587ZM95.0729 23.6409H104.173V25.4354H95.0729V23.6409Z" fill="#121C12"/>
<path d="M115.44 19.3874H117.29V26.7147H115.44V19.3874ZM113.473 17.2772V18.4901H118.823V17.2772H113.473ZM111.756 16.0144H120.656V19.7695H111.756V16.0144ZM110.19 20.8661H121.39V22.4612H112.006V25.967H110.19V20.8661ZM120.54 20.8661H122.373V24.3055C122.373 24.7264 122.317 25.0587 122.206 25.3024C122.106 25.5461 121.895 25.7344 121.573 25.8674C121.262 25.9892 120.878 26.0612 120.423 26.0834C119.978 26.1055 119.451 26.1166 118.84 26.1166C118.795 25.884 118.717 25.6126 118.606 25.3024C118.495 25.0034 118.378 24.7375 118.256 24.5049C118.523 24.516 118.79 24.527 119.056 24.5381C119.334 24.5381 119.573 24.5381 119.773 24.5381C119.984 24.5381 120.128 24.5381 120.206 24.5381C120.328 24.527 120.412 24.5049 120.456 24.4717C120.512 24.4384 120.54 24.372 120.54 24.2723V20.8661ZM115.256 11.1794H117.106V14.2366H115.256V11.1794ZM109.09 13.5554H123.34V17.46H121.556V15.1006H110.806V17.46H109.09V13.5554ZM110.423 11.9603L112.056 11.3123C112.301 11.5892 112.54 11.8994 112.773 12.2427C113.017 12.575 113.201 12.8741 113.323 13.14L111.606 13.9043C111.506 13.6274 111.34 13.3061 111.106 12.9406C110.884 12.575 110.656 12.2483 110.423 11.9603ZM120.223 11.3289L122.14 11.9104C121.851 12.2649 121.556 12.6027 121.256 12.924C120.967 13.2452 120.706 13.5221 120.473 13.7547L118.973 13.2064C119.117 13.0292 119.267 12.8298 119.423 12.6083C119.578 12.3867 119.728 12.1652 119.873 11.9437C120.017 11.711 120.134 11.5061 120.223 11.3289Z" fill="#121C12"/>
</svg>
