<svg width="50" height="40" viewBox="0 0 50 40" fill="none" xmlns="http://www.w3.org/2000/svg">
<path d="M6.37998 1.49236C7.45933 0.925362 9.50877 0.245077 10.5826 0.0972533C12.5285 -0.170255 15.1246 0.140383 16.9932 0.864519C18.8979 1.60273 21.1302 3.1599 23.1378 5.15087C24.1139 6.11876 24.9362 6.91031 24.9651 6.90995C24.9941 6.90958 25.8812 6.06467 26.9365 5.03264C27.9917 4.00043 29.4603 2.75516 30.1997 2.2651C34.1164 -0.329406 38.5667 -0.710019 42.6508 1.20055C43.7533 1.71638 44.3433 2.16735 45.6697 3.50818C48.1751 6.0411 49.3423 8.60984 49.5407 12.027C49.8786 17.8455 47.198 23.6694 42.2919 27.776C40.5792 29.2098 38.6188 30.4821 38.1227 30.4821C37.8782 30.4821 37.4154 29.2952 37.2626 28.2761L37.1392 27.4542L38.2049 26.6396C39.7676 25.445 42.2952 22.8596 43.1933 21.537C44.1725 20.095 45.2931 17.7221 45.6599 16.3137C46.0151 14.9498 46.0173 12.1046 45.6643 10.6074C44.6914 6.48055 41.5606 3.96571 37.3518 3.93008C33.9299 3.90121 32.1999 4.81831 28.0241 8.87497C26.0018 10.8394 25.0308 11.6615 24.7328 11.6615C24.431 11.6615 23.5707 10.9142 21.7288 9.05258C18.2549 5.54098 16.3887 4.33847 13.8247 3.96005C8.83798 3.22367 4.68668 6.21688 3.78785 11.197C2.95189 15.8287 4.61815 19.6336 9.95845 25.2867L11.0056 26.3953L10.7606 27.6622C10.6259 28.3589 10.4644 29.3169 10.4017 29.7911L10.2879 30.6533L8.90176 29.3343C4.39633 25.047 1.8168 21.4102 0.513794 17.5087C0.0346906 16.0739 -0.00441198 15.7467 0.000338854 13.2147C0.00508969 10.7325 0.0518677 10.3359 0.496619 9.01201C1.26571 6.72266 2.32295 4.98824 3.89402 3.43892C4.67809 2.66563 5.76146 1.81742 6.37998 1.49236Z" fill="#DE6F31"/>
<path fill-rule="evenodd" clip-rule="evenodd" d="M14.771 11.6614C18.8142 11.6614 18.4686 11.3334 19.5454 16.1913L19.6382 16.6101L23.639 16.4832C27.9462 16.3469 28.6308 16.4418 28.835 17.2038C29.0187 17.8884 28.9565 18.5092 28.6618 18.9297C28.3826 19.3285 28.3047 19.3358 24.3442 19.3358H20.3111L20.437 20.2848C20.5063 20.8064 20.604 21.2997 20.654 21.3811C20.7042 21.4622 21.2829 21.5285 21.9397 21.5285C23.2973 21.5285 24.7799 21.907 26.114 22.594C27.1515 23.1282 26.9812 23.1046 28.6721 22.9485C29.3756 22.8835 30.608 22.8984 31.4105 22.9817C32.7926 23.125 32.9011 23.1692 33.4631 23.8193C34.1973 24.6688 34.5715 25.6552 35.4677 29.1035L36.1706 31.8076L36.8981 32.1046C38.5903 32.7953 39.3051 33.6939 39.4664 35.3324C39.5604 36.2882 39.5106 36.5426 39.0564 37.4246C37.8391 39.7885 34.9987 40.2915 33.044 38.4897C31.5087 37.0745 31.4749 34.8743 32.9603 33.0401L33.33 32.5833L32.7961 30.5734C32.1851 28.274 31.771 27.0574 31.4796 26.7062C31.3655 26.569 30.9184 26.4621 30.4576 26.4621C29.7474 26.4621 29.6562 26.5047 29.7737 26.7818C30.1848 27.7521 30.4355 28.625 30.6321 29.7714C30.8189 30.861 30.8061 31.2759 30.5465 32.5316C30.1328 34.5322 29.4476 35.8103 28.0255 37.2342C25.8967 39.3655 23.4933 40.2103 20.2829 39.956C18.9395 39.8495 18.427 39.7138 17.3593 39.1805C14.0747 37.5404 12.2193 34.7156 11.9994 31.0202C11.8922 29.2167 12.184 27.9478 13.1113 26.188C13.7527 24.9707 15.6358 22.9917 16.4892 22.638C17.1311 22.3722 17.1492 22.7323 16.2586 18.0567L15.6842 15.0418H13.8026C12.0456 15.0418 11.8977 15.0132 11.5713 14.6103C11.1369 14.0738 11.1006 12.6471 11.5066 12.0675C11.7806 11.676 11.8989 11.6614 14.771 11.6614ZM35.7072 34.3192C34.8999 34.3192 34.2454 34.9737 34.2454 35.781C34.2454 36.5883 34.8999 37.2428 35.7072 37.2428C36.5145 37.2428 37.169 36.5883 37.169 35.781C37.169 34.9737 36.5145 34.3192 35.7072 34.3192ZM24.8046 25.3252C23.7327 24.7422 21.4745 24.3711 21.3275 24.7538C21.2329 25.0006 21.487 26.7823 21.8317 28.2893C21.9973 29.0129 22.1286 29.1719 22.9251 29.614C23.8967 30.1534 23.926 30.2206 23.6401 31.2504C23.3726 32.2135 22.7092 32.6746 21.5912 32.6747C20.7827 32.6747 20.604 32.5979 19.9959 31.9895C19.2649 31.2577 19.151 30.903 18.6043 27.6498C18.1482 24.9354 18.1797 24.963 16.9696 26.2262C15.2688 28.0009 14.7131 30.1913 15.3946 32.4324C16.0093 34.4538 17.2261 35.7541 19.2336 36.5351C22.3125 37.7326 25.7146 36.4307 27.0474 33.5448C27.5186 32.5243 27.576 32.203 27.5758 30.5734C27.5758 28.9422 27.5227 28.6459 27.0835 27.8129C26.3906 26.4993 25.8223 25.879 24.8046 25.3252Z" fill="#527752"/>
</svg>
